<svg width="45" height="45" viewBox="0 0 45 45" fill="none" xmlns="http://www.w3.org/2000/svg">
<g clip-path="url(#clip0)">
<path d="M43.2505 13.2399L41.1073 15.6464L33.5497 18.4205L30.8236 18.9978L28.6729 20.2107L25.1739 21.4951C24.8388 21.6181 24.5042 21.3123 24.5967 20.9674L29.1626 3.95031L30.385 1.43133C30.4497 1.19013 43.474 13.1579 43.2505 13.2399Z" fill="#FFE07D"/>
<path d="M43.8999 14.6215L41.1078 15.6468C39.2349 10.0837 34.7774 5.7089 29.1631 3.95053L29.9576 0.988968C30.0224 0.747589 30.2749 0.608224 30.5138 0.681783C36.9247 2.6581 42.0542 7.65587 44.1665 14.0686C44.2409 14.2948 44.1234 14.5395 43.8999 14.6215Z" fill="#FFC736"/>
<path d="M42.4971 15.1367L41.1078 15.6468C39.2349 10.0836 34.7774 5.70887 29.1631 3.9505L29.541 2.54187L31.0615 3.01934C36.2195 4.6394 40.3291 8.67589 42.054 13.8162L42.4971 15.1367Z" fill="#FAAA0A"/>
<path d="M22.4482 44.3235C10.9501 44.7675 1.26938 35.8065 0.825381 24.3084C0.381384 12.8103 9.34324 3.12957 20.8405 2.68558C22.6702 2.6151 24.4537 2.78204 26.1611 3.16032C26.4066 3.21476 26.5577 3.46257 26.4925 3.70545L20.7232 25.2049C20.6307 25.5497 20.9653 25.8556 21.3004 25.7326L41.3371 18.3771C41.5849 18.2861 41.8573 18.4317 41.918 18.6886C42.2243 19.9823 42.41 21.3235 42.4633 22.7015C42.9072 34.1987 33.9454 43.8795 22.4482 44.3235Z" fill="#FFC736"/>
<path d="M36.1522 38.4571C32.5931 41.9122 27.7946 44.1172 22.4482 44.3233C10.9501 44.7673 1.26938 35.8063 0.825382 24.3082C0.560217 17.4422 3.64969 11.2236 8.62968 7.23376C4.53768 11.2086 2.08513 16.8378 2.32299 22.9868C2.76698 34.4849 12.4477 43.4459 23.9458 43.0019C28.5752 42.8231 32.7931 41.1466 36.1522 38.4571Z" fill="#FAAA0A"/>
<path d="M38.9815 23.5058C38.9815 33.0508 31.216 40.8163 21.6709 40.8163C12.1259 40.8163 4.36035 33.0508 4.36035 23.5058C4.36035 13.9607 12.1259 6.19519 21.6709 6.19519C23.0567 6.19519 24.4045 6.35905 25.6968 6.66826L20.723 25.2051C20.6305 25.5496 20.9653 25.8552 21.3 25.7328L29.3018 22.7954L31.8259 22.2706L34.1796 21.0048L38.4943 19.4208C38.8132 20.7308 38.9815 22.0989 38.9815 23.5058Z" fill="#FFE07D"/>
<path d="M33.5498 18.421L30.9473 19.0992L28.6729 20.2111C28.1611 18.8861 28.8103 17.392 30.1326 16.8643C31.4655 16.3314 32.9781 16.9798 33.5102 18.3126C33.5243 18.3487 33.5384 18.3849 33.5498 18.421Z" fill="#DF646E"/>
<path d="M33.55 18.421L28.6731 20.2111C28.1885 18.9575 28.7435 17.5524 29.9249 16.9586C29.6297 17.5401 29.555 18.2294 29.7575 18.8899C29.7871 18.9866 29.8925 19.0386 29.9875 19.0038L33.2417 17.8097C33.3483 17.9639 33.4382 18.1321 33.5104 18.3127C33.5244 18.3488 33.5385 18.3849 33.55 18.421Z" fill="#DC4955"/>
<path d="M32.6934 24.3488C31.3561 24.8703 29.8488 24.2079 29.3291 22.8706C29.3203 22.8451 29.3106 22.8195 29.3018 22.7948L29.9012 22.8441L30.4064 22.3893L34.1813 21.0038L34.184 21.0161C34.6835 22.3456 34.021 23.8335 32.6934 24.3488Z" fill="#DF646E"/>
<path d="M33.9752 23.2706C33.6898 23.7454 33.2502 24.133 32.6934 24.3489C31.3561 24.8704 29.8488 24.2079 29.3291 22.8706C29.3203 22.8451 29.3106 22.8195 29.3018 22.7949L30.4065 22.3896C31.046 23.4538 32.378 23.9348 33.5743 23.4679C33.7162 23.4133 33.8501 23.3472 33.9752 23.2706Z" fill="#DC4955"/>
<path d="M18.4993 14.0357C19.74 14.0357 20.7457 13.0299 20.7457 11.7893C20.7457 10.5486 19.74 9.54285 18.4993 9.54285C17.2587 9.54285 16.2529 10.5486 16.2529 11.7893C16.2529 13.0299 17.2587 14.0357 18.4993 14.0357Z" fill="#DF646E"/>
<path d="M21.6712 38.0855C22.9119 38.0855 23.9176 37.0797 23.9176 35.8391C23.9176 34.5984 22.9119 33.5927 21.6712 33.5927C20.4306 33.5927 19.4248 34.5984 19.4248 35.8391C19.4248 37.0797 20.4306 38.0855 21.6712 38.0855Z" fill="#DF646E"/>
<path d="M10.8353 22.4928C12.0759 22.4928 13.0817 21.4871 13.0817 20.2464C13.0817 19.0058 12.0759 18 10.8353 18C9.59462 18 8.58887 19.0058 8.58887 20.2464C8.58887 21.4871 9.59462 22.4928 10.8353 22.4928Z" fill="#DF646E"/>
<path d="M12.597 33.945C13.8377 33.945 14.8434 32.9392 14.8434 31.6986C14.8434 30.4579 13.8377 29.4521 12.597 29.4521C11.3563 29.4521 10.3506 30.4579 10.3506 31.6986C10.3506 32.9392 11.3563 33.945 12.597 33.945Z" fill="#DF646E"/>
<path d="M32.3304 32.0951C33.571 32.0951 34.5768 31.0894 34.5768 29.8487C34.5768 28.608 33.571 27.6023 32.3304 27.6023C31.0897 27.6023 30.084 28.608 30.084 29.8487C30.084 31.0894 31.0897 32.0951 32.3304 32.0951Z" fill="#DF646E"/>
<path d="M20.7017 12.2296C20.4982 13.2595 19.5891 14.0356 18.4993 14.0356C17.259 14.0356 16.2529 13.0295 16.2529 11.7892C16.2529 10.6994 17.029 9.79029 18.0589 9.58679C18.0298 9.72951 18.0148 9.87662 18.0148 10.0273C18.0148 11.2676 19.0209 12.2737 20.2612 12.2737C20.4119 12.2737 20.559 12.2587 20.7017 12.2296Z" fill="#DC4955"/>
<path d="M23.8736 36.2794C23.6701 37.3093 22.7609 38.0854 21.6712 38.0854C20.4308 38.0854 19.4248 37.0793 19.4248 35.839C19.4248 34.7492 20.2009 33.8401 21.2307 33.6366C21.2017 33.7793 21.1867 33.9264 21.1867 34.0771C21.1867 35.3174 22.1927 36.3235 23.4331 36.3235C23.5837 36.3235 23.7309 36.3085 23.8736 36.2794Z" fill="#DC4955"/>
<path d="M13.0376 20.6867C12.8341 21.7165 11.925 22.4926 10.8353 22.4926C9.59491 22.4926 8.58887 21.4866 8.58887 20.2462C8.58887 19.1565 9.36498 18.2473 10.3948 18.0438C10.3657 18.1865 10.3508 18.3337 10.3508 18.4843C10.3508 19.7247 11.3568 20.7307 12.5972 20.7307C12.7478 20.7307 12.8949 20.7157 13.0376 20.6867Z" fill="#DC4955"/>
<path d="M14.7994 32.1389C14.5959 33.1687 13.6867 33.9449 12.597 33.9449C11.3566 33.9449 10.3506 32.9388 10.3506 31.6985C10.3506 30.6087 11.1267 29.6996 12.1565 29.4961C12.1275 29.6388 12.1125 29.7859 12.1125 29.9366C12.1125 31.1769 13.1185 32.183 14.3589 32.183C14.5095 32.183 14.6566 32.168 14.7994 32.1389Z" fill="#DC4955"/>
<path d="M34.5328 30.289C34.3293 31.3188 33.4201 32.0949 32.3304 32.0949C31.09 32.0949 30.084 31.0889 30.084 29.8485C30.084 28.7588 30.8601 27.8496 31.8899 27.6461C31.8608 27.7888 31.8459 27.9359 31.8459 28.0866C31.8459 29.327 32.8519 30.333 34.0923 30.333C34.2429 30.333 34.39 30.318 34.5328 30.289Z" fill="#DC4955"/>
<path d="M16.1211 19.48C15.395 18.4455 15.7467 16.9242 15.8778 16.4639C15.9011 16.3824 15.9781 16.3295 16.0625 16.337C16.5443 16.3799 18.1213 16.5975 18.8486 17.6337C19.5747 18.6682 19.223 20.1895 19.0919 20.6498C19.0686 20.7312 18.9916 20.7841 18.9072 20.7766C18.4254 20.7337 16.8484 20.5161 16.1211 19.48Z" fill="#B7E546"/>
<path d="M19.2676 19.7185C19.2271 20.129 19.1426 20.47 19.0915 20.6497C19.0677 20.7316 18.991 20.7845 18.9065 20.7765C18.4246 20.7334 16.8477 20.5158 16.12 19.4798C15.3941 18.4455 15.7456 16.9242 15.8769 16.4634C15.9007 16.3824 15.9773 16.3295 16.0619 16.3366C16.1949 16.348 16.4107 16.3736 16.6697 16.4255C16.6046 17.0677 16.646 17.88 17.0891 18.5107C17.6159 19.2613 18.5884 19.582 19.2676 19.7185Z" fill="#ABD641"/>
<path d="M25.3448 27.7856C26.5186 28.2544 27.0563 29.7203 27.1983 30.1773C27.2234 30.2582 27.1879 30.3446 27.1131 30.3845C26.6863 30.6121 25.2472 31.2927 24.0715 30.8231C22.8977 30.3544 22.36 28.8884 22.218 28.4314C22.1929 28.3505 22.2284 28.2641 22.3031 28.2242C22.73 27.9967 24.1692 27.3161 25.3448 27.7856Z" fill="#B7E546"/>
<path d="M27.1127 30.3841C26.6863 30.6123 25.2468 31.2924 24.0716 30.8229C22.8973 30.3542 22.36 28.8883 22.2181 28.4311C22.1926 28.3501 22.2287 28.2637 22.3027 28.2241C22.4111 28.1668 22.5855 28.0796 22.804 27.9897C23.1035 28.5395 23.5695 29.1429 24.2478 29.4134C25.1244 29.764 26.1489 29.4741 26.7894 29.2099C27.0078 29.6116 27.1382 29.9842 27.1981 30.1771C27.2237 30.2582 27.1875 30.3445 27.1127 30.3841Z" fill="#ABD641"/>
<path d="M15.9313 23.8965C17.1781 24.103 18.0174 25.4197 18.254 25.8357C18.296 25.9094 18.2797 26.0013 18.2152 26.0563C17.847 26.3701 16.587 27.3431 15.3381 27.1363C14.0912 26.9298 13.2519 25.613 13.0153 25.197C12.9734 25.1234 12.9897 25.0314 13.0542 24.9765C13.4223 24.6627 14.6823 23.6897 15.9313 23.8965Z" fill="#B7E546"/>
<path d="M18.2153 26.0561C17.8471 26.3698 16.5873 27.3432 15.3381 27.1362C14.0907 26.93 13.2521 25.613 13.0151 25.1972C12.9737 25.1232 12.9895 25.0316 13.0538 24.9761C13.1657 24.881 13.3595 24.7259 13.6097 24.5603C14.0105 25.1109 14.6994 25.8421 15.6024 25.991C16.4728 26.1354 17.3484 25.7064 17.9237 25.3267C18.077 25.5373 18.188 25.7205 18.2541 25.8359C18.2955 25.909 18.2796 26.0015 18.2153 26.0561Z" fill="#ABD641"/>
<path d="M33.0235 11.0115C32.8182 12.2586 31.5022 13.0992 31.0865 13.3361C31.0128 13.3781 30.9209 13.362 30.8658 13.2976C30.5517 12.9297 29.5775 11.6706 29.7831 10.4214C29.9885 9.17438 31.3044 8.33378 31.7201 8.09681C31.7938 8.05487 31.8858 8.071 31.9408 8.13539C32.255 8.50328 33.2292 9.76232 33.0235 11.0115Z" fill="#B7E546"/>
<path d="M33.024 11.0113C32.8188 12.2587 31.5026 13.0991 31.0868 13.3361C31.0128 13.3784 30.9212 13.3616 30.8657 13.2973C30.5521 12.9291 29.5778 11.6702 29.783 10.421C29.8253 10.1647 29.9143 9.92592 30.0332 9.70569C30.1416 10.7338 30.8666 11.6676 31.13 11.9759C31.1855 12.0402 31.2771 12.0569 31.3511 12.0146C31.6815 11.8261 32.58 11.257 33.0381 10.4052C33.0593 10.6051 33.0575 10.8086 33.024 11.0113Z" fill="#ABD641"/>
<path d="M9.11787 28.439C8.02497 28.439 7.13574 27.5498 7.13574 26.4569C7.13574 25.364 8.02497 24.4747 9.11787 24.4747C10.2108 24.4747 11.1 25.364 11.1 26.4569C11.1 27.5498 10.2109 28.439 9.11787 28.439Z" fill="#61AAB8"/>
<path d="M12.6413 16.0177C11.5484 16.0177 10.6592 15.1286 10.6592 14.0356C10.6592 12.9426 11.5484 12.0535 12.6413 12.0535C13.7342 12.0535 14.6234 12.9426 14.6234 14.0356C14.6234 15.1286 13.7343 16.0177 12.6413 16.0177Z" fill="#61AAB8"/>
<path d="M35.987 15.4892C34.8941 15.4892 34.0049 14.6 34.0049 13.507C34.0049 12.414 34.8941 11.5249 35.987 11.5249C37.0799 11.5249 37.9691 12.414 37.9691 13.507C37.9691 14.6 37.08 15.4892 35.987 15.4892Z" fill="#61AAB8"/>
<path d="M27.8815 36.8961C26.7886 36.8961 25.8994 36.0069 25.8994 34.914C25.8994 33.8211 26.7886 32.9319 27.8815 32.9319C28.9744 32.9319 29.8637 33.8211 29.8637 34.914C29.8637 36.0069 28.9745 36.8961 27.8815 36.8961Z" fill="#61AAB8"/>
<path d="M18.4558 32.5795C17.3629 32.5795 16.4736 31.6903 16.4736 30.5974C16.4736 29.5045 17.3629 28.6152 18.4558 28.6152C19.5487 28.6152 20.4379 29.5045 20.4379 30.5974C20.4379 31.6903 19.5487 32.5795 18.4558 32.5795Z" fill="#61AAB8"/>
<path d="M10.6155 27.0295C9.52222 27.0295 8.63335 26.1406 8.63335 25.0474C8.63335 24.8642 8.65802 24.6862 8.70559 24.5179C7.80967 24.7082 7.13574 25.5046 7.13574 26.4569C7.13574 27.5502 8.02462 28.439 9.11787 28.439C10.0279 28.439 10.7961 27.8233 11.0278 26.9864C10.8947 27.0145 10.7564 27.0295 10.6155 27.0295Z" fill="#5595A2"/>
<path d="M14.1389 14.6083C13.0457 14.6083 12.1568 13.7194 12.1568 12.6261C12.1568 12.4429 12.1815 12.2649 12.229 12.0967C11.3331 12.287 10.6592 13.0833 10.6592 14.0356C10.6592 15.1289 11.5481 16.0178 12.6413 16.0178C13.5513 16.0178 14.3195 15.402 14.5512 14.5651C14.4182 14.5933 14.2799 14.6083 14.1389 14.6083Z" fill="#5595A2"/>
<path d="M37.4846 14.0797C36.3914 14.0797 35.5025 13.1908 35.5025 12.0976C35.5025 11.9143 35.5272 11.7364 35.5747 11.5681C34.6788 11.7584 34.0049 12.5548 34.0049 13.5071C34.0049 14.6003 34.8938 15.4892 35.987 15.4892C36.897 15.4892 37.6652 14.8734 37.8969 14.0365C37.7639 14.0647 37.6256 14.0797 37.4846 14.0797Z" fill="#5595A2"/>
<path d="M29.3791 35.4867C28.2859 35.4867 27.397 34.5978 27.397 33.5045C27.397 33.3213 27.4217 33.1434 27.4693 32.9751C26.5733 33.1654 25.8994 33.9618 25.8994 34.9141C25.8994 36.0073 26.7883 36.8962 27.8815 36.8962C28.7916 36.8962 29.5597 36.2804 29.7914 35.4435C29.6584 35.4717 29.5201 35.4867 29.3791 35.4867Z" fill="#5595A2"/>
<path d="M19.9534 31.17C18.8601 31.17 17.9712 30.2811 17.9712 29.1879C17.9712 29.0047 17.9959 28.8267 18.0435 28.6584C17.1476 28.8487 16.4736 29.6451 16.4736 30.5974C16.4736 31.6907 17.3625 32.5795 18.4558 32.5795C19.3658 32.5795 20.134 31.9638 20.3656 31.1269C20.2326 31.155 20.0943 31.17 19.9534 31.17Z" fill="#5595A2"/>
<path d="M44.7939 13.8619C42.6332 7.28063 37.3381 2.08852 30.7083 0.0504516C30.1326 -0.139921 29.4648 0.228579 29.3193 0.817667L26.0182 13.1206C25.9237 13.4731 26.1327 13.8354 26.4852 13.93C26.8372 14.0246 27.1998 13.8156 27.2946 13.4631L29.6186 4.80148C34.513 6.54786 38.4259 10.3881 40.2639 15.2523L33.8881 17.5928C33.1126 16.2518 31.3219 15.6456 29.8881 16.2507C28.4519 16.8239 27.6439 18.3256 27.8811 19.7978L25.3451 20.7286L26.4943 16.4457C26.5889 16.0933 26.3798 15.7309 26.0273 15.6363C25.675 15.5418 25.3126 15.7507 25.2179 16.1032L23.9587 20.7963C23.7053 21.6248 24.6034 22.4411 25.4018 22.1153C31.0493 20.0424 38.4653 17.3202 44.1274 15.2416C44.6883 15.0358 44.981 14.4297 44.7939 13.8619ZM29.9627 3.51979L30.5364 1.38156C36.6042 3.32766 41.4163 8.04917 43.4716 14.0748L41.5057 14.7964C39.5202 9.53162 35.2719 5.3807 29.9627 3.51979ZM30.3782 17.4778C31.1467 17.1557 32.0983 17.4099 32.6091 18.0622L29.161 19.3279C29.1418 18.541 29.6083 17.785 30.3782 17.4778Z" fill="black"/>
<path d="M42.5611 18.5362C42.4887 18.2304 42.2882 17.9695 42.0111 17.8206C41.7338 17.6714 41.4051 17.6481 41.1096 17.7567L33.1214 20.6892L29.0745 22.1745C29.0728 22.1752 29.0713 22.176 29.0696 22.1767L25.8577 23.3557C25.5152 23.4815 25.3395 23.8611 25.4652 24.2037C25.591 24.5461 25.9703 24.7219 26.3132 24.5963L28.9666 23.6222C29.3103 24.1901 29.8183 24.6388 30.4389 24.9116C30.8591 25.0962 31.3037 25.1887 31.7492 25.1887C32.1493 25.1887 32.5499 25.114 32.9338 24.9643C34.3807 24.402 35.203 22.8983 34.9697 21.4183L38.01 20.3022C38.2155 21.3531 38.3212 22.4272 38.3212 23.5057C38.3212 32.6864 30.8521 40.1555 21.6713 40.1555C12.4905 40.1555 5.02145 32.6864 5.02145 23.5057C5.02145 14.3249 12.4905 6.85579 21.6713 6.85579C22.7512 6.85579 23.8271 6.96168 24.8795 7.16773L20.0853 25.0336C19.9781 25.4323 20.101 25.8531 20.4057 26.1317C20.6127 26.3209 20.8773 26.4207 21.1474 26.4206C21.275 26.4206 21.4038 26.3983 21.5282 26.3527L23.4183 25.6589C23.7608 25.5331 23.9366 25.1535 23.8109 24.8109C23.6851 24.4684 23.3056 24.293 22.9629 24.4183L21.4715 24.9658L27.1308 3.87634C27.3006 3.29025 26.9022 2.63492 26.304 2.51502C24.5149 2.11851 22.6684 1.95386 20.815 2.02504C17.3873 2.15736 14.009 3.11662 11.0457 4.79887C10.7283 4.97902 10.6171 5.38232 10.7973 5.69964C10.9774 6.01695 11.3807 6.12813 11.698 5.94806C14.5182 4.34712 17.6027 3.47155 20.866 3.34557C22.5282 3.28171 24.1858 3.41993 25.7947 3.75698L25.2228 5.88825C24.0583 5.65409 22.8668 5.53437 21.6712 5.53437C11.7618 5.53437 3.69994 13.5963 3.69994 23.5057C3.69994 33.4151 11.7618 41.4769 21.6712 41.4769C31.5806 41.4769 39.6425 33.4151 39.6425 23.5057C39.6425 22.2712 39.5156 21.0413 39.2661 19.8411L41.3309 19.083C41.5969 20.2725 41.7555 21.497 41.803 22.7268C42.0109 28.111 40.1095 33.2539 36.4489 37.2084C32.7883 41.1629 27.807 43.4551 22.4228 43.6632C11.3075 44.0908 1.91488 35.3983 1.4856 24.2828C1.23647 17.8305 4.12694 11.5979 9.21774 7.61058C9.50502 7.38559 9.5555 6.97031 9.33042 6.68304C9.10534 6.39558 8.68997 6.34537 8.40287 6.57027C5.77906 8.62543 3.63863 11.2997 2.21308 14.3041C0.739967 17.4089 0.0318636 20.8771 0.165327 24.3338C0.386884 30.0712 2.82931 35.3789 7.04278 39.279C11.048 42.9863 16.1969 45.0002 21.6242 45C21.9064 45 22.1902 44.9945 22.4739 44.9835C28.2108 44.762 33.5184 42.3196 37.4187 38.1062C41.3192 33.8927 43.3452 28.4128 43.1236 22.6759C43.0696 21.2772 42.8802 19.8844 42.5611 18.5362ZM32.4546 23.7329C32.4543 23.733 32.454 23.7331 32.4537 23.7333C31.9713 23.9213 31.4447 23.9102 30.9707 23.7018C30.6845 23.5761 30.4385 23.3877 30.2472 23.1521L33.6884 21.8889C33.7026 22.678 33.229 23.4323 32.4546 23.7329Z" fill="black"/>
<path d="M18.4999 14.6962C20.1029 14.6962 21.407 13.392 21.407 11.7891C21.407 10.1861 20.1029 8.88196 18.4999 8.88196C16.8969 8.88196 15.5928 10.1861 15.5928 11.7891C15.5928 13.392 16.8969 14.6962 18.4999 14.6962ZM18.4999 10.2034C19.3742 10.2034 20.0856 10.9147 20.0856 11.7891C20.0856 12.6634 19.3742 13.3748 18.4999 13.3748C17.6256 13.3748 16.9142 12.6634 16.9142 11.7891C16.9142 10.9147 17.6256 10.2034 18.4999 10.2034Z" fill="black"/>
<path d="M21.6718 38.7461C23.2747 38.7461 24.5789 37.442 24.5789 35.839C24.5789 34.236 23.2747 32.9319 21.6718 32.9319C20.0688 32.9319 18.7646 34.236 18.7646 35.839C18.7646 37.442 20.0688 38.7461 21.6718 38.7461ZM21.6718 34.2533C22.5461 34.2533 23.2575 34.9647 23.2575 35.839C23.2575 36.7133 22.5461 37.4247 21.6718 37.4247C20.7974 37.4247 20.0861 36.7133 20.0861 35.839C20.0861 34.9647 20.7975 34.2533 21.6718 34.2533Z" fill="black"/>
<path d="M7.92871 20.2462C7.92871 21.8492 9.23286 23.1534 10.8358 23.1534C12.4388 23.1534 13.743 21.8492 13.743 20.2462C13.743 18.6433 12.4388 17.3391 10.8358 17.3391C9.23286 17.3391 7.92871 18.6433 7.92871 20.2462ZM10.8358 18.6605C11.7102 18.6605 12.4215 19.3719 12.4215 20.2462C12.4215 21.1206 11.7102 21.8319 10.8358 21.8319C9.96149 21.8319 9.25013 21.1206 9.25013 20.2462C9.25013 19.3719 9.96158 18.6605 10.8358 18.6605Z" fill="black"/>
<path d="M12.5975 34.6056C14.2005 34.6056 15.5047 33.3015 15.5047 31.6985C15.5047 30.0955 14.2005 28.7914 12.5975 28.7914C10.9946 28.7914 9.69043 30.0955 9.69043 31.6985C9.69043 33.3015 10.9946 34.6056 12.5975 34.6056ZM12.5975 30.1128C13.4719 30.1128 14.1833 30.8242 14.1833 31.6985C14.1833 32.5728 13.4719 33.2842 12.5975 33.2842C11.7232 33.2842 11.0118 32.5728 11.0118 31.6985C11.0118 30.8242 11.7233 30.1128 12.5975 30.1128Z" fill="black"/>
<path d="M32.1936 28.2687C32.5572 28.2376 32.8268 27.9178 32.7957 27.5542C32.7646 27.1906 32.444 26.9206 32.0813 26.9521C30.5911 27.0792 29.4238 28.3516 29.4238 29.8486C29.4238 31.4516 30.728 32.7557 32.3309 32.7557C33.9339 32.7557 35.2381 31.4516 35.2381 29.8486C35.2887 29.3697 35.0245 28.8181 34.4711 28.8953C33.9929 28.9541 33.8352 29.4275 33.9166 29.8486C33.9166 30.723 33.2053 31.4343 32.3309 31.4343C31.4566 31.4343 30.7452 30.723 30.7452 29.8486C30.7452 29.032 31.3814 28.338 32.1936 28.2687Z" fill="black"/>
<path d="M15.2953 16.1115C15.2637 16.2029 14.5342 18.3689 15.5804 19.8593C16.6213 21.3425 18.9282 21.4432 19.0258 21.4468C19.034 21.4471 19.042 21.4473 19.05 21.4473C19.3309 21.4473 19.5822 21.2692 19.6745 21.0021C19.706 20.9106 20.4356 18.7446 19.3895 17.254C18.3484 15.771 16.0415 15.6703 15.9439 15.6667C15.6525 15.655 15.3902 15.8367 15.2953 16.1115ZM16.417 17.049C17.0342 17.1591 17.8999 17.4318 18.308 18.0132C18.7105 18.5866 18.6653 19.4646 18.5529 20.0644C17.9357 19.9544 17.07 19.6817 16.662 19.1002C16.2595 18.5267 16.3048 17.6489 16.417 17.049Z" fill="black"/>
<path d="M25.59 27.1719C23.907 26.4998 21.9211 27.6774 21.8373 27.728C21.5883 27.878 21.4667 28.1732 21.5376 28.4551C21.5613 28.549 22.1354 30.7614 23.8265 31.4367C24.1984 31.5853 24.5849 31.6435 24.9625 31.6435C26.294 31.6435 27.5139 30.92 27.5791 30.8807C27.8281 30.7306 27.9497 30.4355 27.8788 30.1536C27.8553 30.0597 27.2811 27.8474 25.59 27.1719ZM24.3166 30.2095C23.666 29.9497 23.2236 29.19 22.9895 28.6264C23.5664 28.381 24.4404 28.1358 25.0999 28.3991C25.7506 28.659 26.1929 29.4186 26.4271 29.9823C25.8502 30.2277 24.9764 30.473 24.3166 30.2095Z" fill="black"/>
<path d="M18.7764 26.4411C18.9875 26.2412 19.0431 25.9268 18.9134 25.6667C18.8703 25.5801 17.8356 23.5421 16.0391 23.2446C14.2511 22.9486 12.5636 24.5243 12.4926 24.5915C12.2815 24.7915 12.2259 25.1058 12.3555 25.3659C12.3986 25.4525 13.4333 27.4905 15.2299 27.788C15.3832 27.8134 15.5357 27.825 15.6866 27.825C17.2951 27.8249 18.7116 26.5025 18.7764 26.4411ZM13.8104 25.2223C14.3214 24.859 15.1224 24.4325 15.8231 24.5483C16.5144 24.6628 17.1092 25.31 17.4586 25.8104C16.9477 26.1737 16.1461 26.6003 15.4458 26.4843C14.7546 26.3699 14.1598 25.7226 13.8104 25.2223Z" fill="black"/>
<path d="M30.961 14.0652C31.0612 14.0652 31.1621 14.0424 31.2561 13.9955C31.3427 13.9522 33.3796 12.9156 33.6755 11.1188C33.9699 9.33081 32.3925 7.6445 32.3252 7.57359C32.1251 7.36278 31.8107 7.30745 31.5506 7.43731C31.464 7.48056 29.4272 8.51717 29.1313 10.314C28.8369 12.102 30.4142 13.7883 30.4815 13.8592C30.6094 13.994 30.7839 14.0652 30.961 14.0652ZM30.4352 10.5287C30.549 9.83735 31.1957 9.24201 31.6956 8.8921C32.0596 9.40261 32.487 10.2033 32.3717 10.9042C32.258 11.5947 31.6128 12.1895 31.113 12.5396C30.7752 12.0689 30.3137 11.2667 30.4352 10.5287Z" fill="black"/>
<path d="M7.13574 26.4569C7.13574 27.5498 8.02497 28.439 9.11787 28.439C10.2108 28.439 11.1 27.5498 11.1 26.4569C11.1 25.364 10.2108 24.4747 9.11787 24.4747C8.02497 24.4747 7.13574 25.364 7.13574 26.4569ZM9.11787 25.7961C9.48223 25.7961 9.77858 26.0925 9.77858 26.4569C9.77858 26.8212 9.48223 27.1176 9.11787 27.1176C8.75351 27.1176 8.45716 26.8212 8.45716 26.4569C8.45716 26.0925 8.7536 25.7961 9.11787 25.7961Z" fill="black"/>
<path d="M12.6413 16.0176C13.7342 16.0176 14.6234 15.1285 14.6234 14.0355C14.6234 12.9425 13.7342 12.0533 12.6413 12.0533C11.5484 12.0533 10.6592 12.9425 10.6592 14.0355C10.6592 15.1285 11.5484 16.0176 12.6413 16.0176ZM12.6413 13.3748C13.0057 13.3748 13.302 13.6711 13.302 14.0355C13.302 14.3998 13.0057 14.6962 12.6413 14.6962C12.2769 14.6962 11.9806 14.3998 11.9806 14.0355C11.9806 13.6711 12.277 13.3748 12.6413 13.3748Z" fill="black"/>
<path d="M37.9691 13.507C37.9691 12.414 37.0799 11.5249 35.987 11.5249C34.8941 11.5249 34.0049 12.414 34.0049 13.507C34.0049 14.6 34.8941 15.4892 35.987 15.4892C37.0799 15.4892 37.9691 14.6 37.9691 13.507ZM35.3263 13.507C35.3263 13.1427 35.6227 12.8463 35.987 12.8463C36.3514 12.8463 36.6477 13.1427 36.6477 13.507C36.6477 13.8714 36.3514 14.1677 35.987 14.1677C35.6227 14.1677 35.3263 13.8714 35.3263 13.507Z" fill="black"/>
<path d="M27.8815 32.9319C26.7886 32.9319 25.8994 33.8211 25.8994 34.914C25.8994 36.0069 26.7886 36.8961 27.8815 36.8961C28.9744 36.8961 29.8637 36.0069 29.8637 34.914C29.8637 33.8211 28.9745 32.9319 27.8815 32.9319ZM27.8815 35.5747C27.5172 35.5747 27.2208 35.2784 27.2208 34.914C27.2208 34.5497 27.5172 34.2533 27.8815 34.2533C28.2459 34.2533 28.5422 34.5497 28.5422 34.914C28.5422 35.2784 28.2459 35.5747 27.8815 35.5747Z" fill="black"/>
<path d="M18.4558 32.5794C19.5487 32.5794 20.4379 31.6901 20.4379 30.5972C20.4379 29.5043 19.5487 28.6151 18.4558 28.6151C17.3629 28.6151 16.4736 29.5043 16.4736 30.5972C16.4736 31.6901 17.3629 32.5794 18.4558 32.5794ZM18.4558 29.9365C18.8201 29.9365 19.1165 30.2329 19.1165 30.5972C19.1165 30.9616 18.8201 31.2579 18.4558 31.2579C18.0914 31.2579 17.795 30.9616 17.795 30.5972C17.795 30.2329 18.0915 29.9365 18.4558 29.9365Z" fill="black"/>
</g>
<defs>
<clipPath id="clip0">
<rect width="45" height="45" fill="white"/>
</clipPath>
</defs>
</svg>
