<svg xmlns="http://www.w3.org/2000/svg" viewBox="0 0 383.38 322.6"><g id="Layer_2" data-name="Layer 2"><g id="Layer_1-2" data-name="Layer 1"><path d="M383.38,91c-1.46,6.15-2.47,12.44-4.45,18.42a82.2,82.2,0,0,1-77.19,56.46c-28.19.26-56.38.06-84.58.07h-4.74v19.54c11-2.56,20.21.17,26.9,9.46,15.93-5.59,24.89-2.57,32.64,10.4,4.84-.26,9.45-1.2,13.84-.6,10,1.36,18.29,9.46,18.66,19.56.64,17.78,1.57,35.66-2.81,53.23-3.66,14.68-11.07,27.72-17.76,41.06a7.17,7.17,0,0,1-9.93,3.14,7.29,7.29,0,0,1-3.25-9.91c2.61-5.65,5.4-11.22,8.27-16.75A95.09,95.09,0,0,0,289.83,249c-.12-7,0-14,0-20.95,0-5-3.06-8.61-7.29-8.85-4.5-.26-7.56,2.52-8.46,7.68s-3.91,8-8,7.72c-4.39-.27-7-3.54-7-8.91,0-3.24.05-6.49,0-9.73-.1-4.93-2.83-8.39-6.89-8.87s-7.78,2.48-8.85,7.32a23.62,23.62,0,0,1-.79,3.27,7.28,7.28,0,0,1-7.77,4.58c-3.47-.47-5.82-2.42-6.32-5.91-.38-2.69-.17-5.47-.32-8.21-.28-5.08-3.24-8.38-7.62-8.57s-7.55,2.66-8.3,7.81-3.74,7.87-8,7.52-6.95-3.53-7-8.63c-.06-16.34,0-32.69,0-49a40.21,40.21,0,0,0-.09-4.11,8,8,0,0,0-8.26-7.49c-4.2.19-7.27,3.32-7.45,7.83-.14,3.24,0,6.48,0,9.73q0,35.92,0,71.85c0,1.13.05,2.25,0,3.37a7.52,7.52,0,0,1-7.56,7.25,7.42,7.42,0,0,1-7.3-7.12c-.2-4.09,0-8.19,0-12.36a13.38,13.38,0,0,0-9.7,12.86c-.18,11.35-.4,22.72.15,34,.16,3.39,2.17,7.24,4.48,9.86,7.6,8.59,15.74,16.7,23.66,25a26.18,26.18,0,0,1,2.47,2.8A7.39,7.39,0,0,1,176.92,321a61.18,61.18,0,0,1-5.28-5.28c-7.07-7.4-14.07-14.86-21.19-22.2a30.29,30.29,0,0,1-8.85-21.94c0-10,0-20,0-29.94,0-15.5,7.88-26.27,22.63-31,.59-.19,1.16-.44,1.88-.72V165.94h-4.6q-38.55,0-77.1,0c-42,0-75.35-27.75-83.1-69.08C-7,52.43,25.44,7.28,70.22,1.16A116.48,116.48,0,0,1,85.5.14c23.33-.11,46.66-.05,70-.05H157c5.75.11,9.23,3,9.12,7.62s-3.48,7.32-9,7.33q-36.12.06-72.23,0C61,15,41.46,24.28,27.78,43.8c-15.37,21.94-17.36,45.81-5.26,69.71S55,150.3,82,150.84c27.19.54,54.39.12,81.59.12.85,0,1.7-.12,2.5-.18,5.06-14.43,12.19-20.39,23.95-20.14,10.53.23,18.17,7.13,22.15,20.18,1,.05,2.12.14,3.22.14,28.19,0,56.39.08,84.58,0,38.92-.12,69.1-31.07,68.36-69.94-.66-34.57-28.84-64.33-63.39-65.57-25.54-.93-51.14-.31-76.71-.39a27.92,27.92,0,0,1-4.84-.3,7.26,7.26,0,0,1-5.95-7.16,7.38,7.38,0,0,1,6.24-7.3,10.56,10.56,0,0,1,1.86-.18c26.94.08,53.91-.5,80.83.4,36.54,1.22,69.36,31,75.5,67.09.44,2.56,1,5.11,1.46,7.67Z"/><path d="M245.71,77.29c6.41,6.09,9.65,13.17,8.34,21.92a23.44,23.44,0,0,1-22.56,20.14c-6.85.2-13.71.13-20.56.06-5,0-8-2.93-8-7.87q-.09-29.54,0-59.07c0-5,2.91-7.8,8-7.89s10,.23,15-.07C243.07,43.46,254.89,61.34,245.71,77.29ZM218,87.21v17.12c4.74,0,9.33.28,13.86-.08a8.54,8.54,0,0,0-.61-17C227,87.06,222.64,87.21,218,87.21Zm0-15.06c3.54,0,6.64.16,9.71,0,3.87-.24,6.3-2.94,6.18-6.52s-2.55-5.87-6.26-6c-3.17-.13-6.35,0-9.63,0Z"/><path d="M184.9,73.66c0,6-.07,12,0,18,.14,11.08-4.79,19.12-14.52,24.2s-19.66,5.09-29.18-.69C132.42,109.79,128,102,128.14,91.5c.16-12.47,0-24.94,0-37.41,0-.62,0-1.24,0-1.87.28-4.54,3.39-7.67,7.56-7.63s7.3,3.14,7.36,7.76c.1,7.86,0,15.71,0,23.57,0,5.23,0,10.47,0,15.71,0,7.43,5.44,12.77,13,12.83,8,.07,13.75-5.26,13.77-12.93,0-13,0-25.94,0-38.91,0-4.9,3.07-8.06,7.44-8,4.14,0,7.17,3.16,7.48,7.76.06.86,0,1.74,0,2.61Z"/><path d="M88.11,119.53c-10.47-.46-18.83-3.5-25.7-10.14-3.87-3.74-4.26-8.24-1.08-11.5s7.31-3.09,11.23.58a20.8,20.8,0,0,0,15.25,5.93c1.7,0,3.8-.2,5-1.18,2.06-1.73,4.61-4,4.93-6.3.24-1.73-2.31-4.71-4.33-5.72a177.56,177.56,0,0,0-18.22-7.66c-8.32-3.07-12.34-9.21-12.55-17.66s4.13-14.7,11.65-18.54c10.11-5.16,26.19-2.61,34.31,5.32a7.46,7.46,0,0,1,.82,10.16c-2.33,2.95-6.2,3.45-9.78,1.7A62.82,62.82,0,0,0,88,59.76,11,11,0,0,0,80.88,61a7,7,0,0,0-3.13,4.89c-.11,1.18,1.85,3.1,3.31,3.76C86.38,72,91.92,74,97.3,76.26c7.14,3.07,12.9,7.69,15,15.56,3.15,11.65-4.93,23.71-17.85,26.76A63.22,63.22,0,0,1,88.11,119.53Z"/><path d="M295.46,119.4c-9.71-.35-18.26-3.52-25.18-10.52-3.49-3.54-3.68-7.78-.6-11s7.34-3.21,11,.26a20.7,20.7,0,0,0,15.49,6.2,14.29,14.29,0,0,0,6-1.6c5.48-2.93,5.73-8.3.29-11.24-4.79-2.58-10.06-4.27-15.07-6.47-3.06-1.34-6.35-2.47-9-4.43-10.94-8.13-9.67-24.73,2.29-32.26,10.17-6.4,28.2-4.17,36.53,4.54a7.49,7.49,0,0,1,.55,9.89c-2.36,3-6.27,3.56-9.77,1.71-3.06-1.61-6.09-3.67-9.38-4.36a18.91,18.91,0,0,0-9.38.82c-1.46.48-2.88,3.1-3,4.86C286.11,67,288,69,289.46,69.6c5.65,2.58,11.57,4.58,17.22,7.16,8.32,3.81,14.27,9.7,14.61,19.48.43,12.23-10.15,22.5-23.58,23.16C297,119.43,296.21,119.4,295.46,119.4Z"/><path d="M199.2,7.55A7.45,7.45,0,1,1,191.84.21,7.34,7.34,0,0,1,199.2,7.55Z"/></g></g></svg>